<svg version="1.2" xmlns="http://www.w3.org/2000/svg" viewBox="0 0 676 632" width="676" height="632">
	<title>undraw_time-management_fedt</title>
	<style>
		.s0 { fill: #969696 } 
		.s1 { fill: #cccccc } 
		.s2 { fill: #ffffff } 
		.s3 { fill: #ff7300 } 
		.s4 { opacity: .2;fill: #000000 } 
		.s5 { fill: #3f3d56 } 
		.s6 { fill: #ffb7b7 } 
		.s7 { fill: #2f2e41 } 
	</style>
	<path class="s0" d="m624.6 483.5l30.3 4.7q3.8-4.6 7.1-9.7 3.2-5.1 5.8-10.5 2.6-5.4 4.6-11.1 1.9-5.7 3.1-11.6c-22.2 18.1-55.9 8.5-82.7 18.4-4.2 1.5-8.2 3.6-11.9 6-3.7 2.5-7.1 5.4-10.2 8.6-3.1 3.2-5.8 6.8-8.1 10.6-2.2 3.8-4.1 7.9-5.5 12.1l-14.8 15.9c6.7 2.7 13.7 4.6 20.8 5.8 7.1 1.1 14.3 1.5 21.4 1.1 7.2-0.4 14.3-1.6 21.3-3.5 6.9-1.9 13.6-4.6 19.9-7.9q2.7-1.5 5.3-3.1 2.5-1.6 5-3.4 2.5-1.7 4.8-3.7 2.4-1.9 4.6-3.9c-10.6-6.7-20.8-14.8-20.8-14.8z"/>
	<path class="s0" d="m613.8 435l29.3-9.3q1.3-5.9 2-11.8 0.6-6 0.5-12.1-0.1-6-0.9-11.9-0.8-6-2.3-11.8c-11.8 26.1-46.2 32.5-65.9 53.4-3 3.2-5.7 6.8-7.9 10.7-2.2 3.8-4 7.9-5.3 12.2-1.3 4.2-2.2 8.6-2.5 13.1-0.3 4.4-0.2 8.9 0.5 13.3l-6.2 20.8c7.2-0.6 14.3-2 21.1-4.1 6.9-2.1 13.5-5 19.8-8.6 6.2-3.5 12.1-7.7 17.4-12.5 5.4-4.9 10.2-10.2 14.3-16.1q1.8-2.5 3.4-5 1.5-2.6 3-5.3 1.4-2.7 2.6-5.4 1.3-2.8 2.3-5.6c-12.4-1.3-25.2-4-25.2-4z"/>
	<path class="s1" d="m675.7 526.6q0 0.2-0.1 0.5-0.1 0.2-0.3 0.3-0.1 0.2-0.4 0.3-0.2 0.1-0.4 0.1h-673.3c-0.3 0-0.6-0.1-0.9-0.4-0.2-0.2-0.3-0.5-0.3-0.8 0-0.3 0.1-0.6 0.3-0.8 0.3-0.3 0.6-0.4 0.9-0.4h673.3q0.2 0 0.4 0.1 0.3 0.1 0.4 0.3 0.2 0.1 0.3 0.3 0.1 0.3 0.1 0.5z"/>
	<path fill-rule="evenodd" class="s0" d="m279 476.9c-118.9 0-215-96.1-215-215 0-118.9 96.1-215 215-215 118.9 0 215 96.1 215 215 0 118.9-96.1 215-215 215z"/>
	<path class="s2" d="m464 260.9c0 14.4-1.7 28.7-5 42.7-3.3 14-8.2 27.5-14.7 40.4-6.5 12.8-14.4 24.9-23.7 35.9-9.2 11-19.7 20.9-31.3 29.5q-2.3 1.7-4.7 3.4c-15.4 10.7-32.4 19-50.3 24.6-17.9 5.6-36.5 8.5-55.3 8.5-18.8 0-37.4-2.9-55.3-8.5-17.9-5.6-34.9-13.9-50.3-24.6q-2.4-1.7-4.7-3.4c-23.2-17.2-42-39.6-55-65.4-12.9-25.8-19.7-54.3-19.7-83.1 0-28.9 6.8-57.4 19.7-83.1 13-25.8 31.8-48.2 55-65.4q2.3-1.8 4.7-3.4c15.4-10.7 32.4-19.1 50.3-24.7 17.9-5.6 36.5-8.4 55.3-8.4 18.8 0 37.4 2.8 55.3 8.4 17.9 5.6 34.9 14 50.3 24.7q2.4 1.6 4.7 3.4c11.6 8.5 22.1 18.4 31.3 29.4 9.3 11 17.2 23.1 23.7 35.9 6.5 12.9 11.4 26.5 14.7 40.4 3.3 14 5 28.4 5 42.8z"/>
	<path fill-rule="evenodd" class="s3" d="m279 429.9c-93.5 0-169-75.6-169-169 0-93.5 75.5-169 169-169 93.5 0 169 75.5 169 169 0 93.4-75.5 169-169 169z"/>
	<path class="s4" d="m279.4 92.3q-3.8 0-7.6 0.2c42.7 3.8 82.4 23.6 111 55.5 28.7 32 44.1 73.6 43.2 116.5-0.9 42.8-18.1 83.7-48.1 114.4-29.9 30.7-70.4 48.8-113.3 50.8q7.4 0.6 14.8 0.6c44.9 0 87.8-17.8 119.5-49.5 31.7-31.7 49.5-74.6 49.5-119.5 0-44.8-17.8-87.8-49.5-119.5-31.7-31.7-74.6-49.5-119.5-49.5z"/>
	<path class="s2" d="m279.5 79.9q-1.1 0-2.1 0.4-1 0.4-1.8 1.2-0.8 0.8-1.2 1.8-0.4 1-0.4 2.1v24c0 1.4 0.6 2.8 1.6 3.9 1 1 2.4 1.6 3.9 1.6 1.5 0 2.9-0.6 3.9-1.6 1-1.1 1.6-2.5 1.6-3.9v-24q0-1.1-0.4-2.1-0.4-1-1.2-1.8-0.8-0.8-1.8-1.2-1-0.4-2.1-0.4z"/>
	<path class="s2" d="m389.3 112.4q-2.3-1.8-4.7-3.4-0.7-0.1-1.4 0.1-0.7 0.1-1.4 0.4-0.6 0.3-1.1 0.8-0.6 0.5-1 1.1l-13.5 19.8c-0.8 1.2-1.1 2.7-0.9 4.1 0.3 1.4 1.1 2.7 2.3 3.5 1.3 0.8 2.7 1.2 4.2 0.9 1.4-0.3 2.7-1.1 3.5-2.3l13.5-19.9q0.4-0.5 0.6-1.2 0.3-0.6 0.3-1.3 0.1-0.7 0-1.3-0.1-0.7-0.4-1.3z"/>
	<path class="s2" d="m450.7 202.8q-0.4-1-1.2-1.8-0.7-0.8-1.7-1.2-1.1-0.4-2.1-0.4-1.1-0.1-2.2 0.4l-22.2 9c-1.3 0.5-2.4 1.6-3 2.9-0.6 1.4-0.6 2.9 0 4.2 0.5 1.4 1.6 2.5 2.9 3 1.4 0.6 2.9 0.6 4.2 0.1l22.3-9.1q1-0.4 1.8-1.1 0.8-0.8 1.2-1.8 0.4-1 0.4-2.1 0-1.1-0.4-2.1z"/>
	<path class="s2" d="m191.8 131.2l-13.5-19.8q-0.4-0.6-1-1.1-0.5-0.5-1.1-0.8-0.7-0.3-1.4-0.4-0.7-0.2-1.4-0.1-2.4 1.6-4.7 3.4-0.3 0.6-0.4 1.3-0.1 0.6 0 1.3 0 0.7 0.3 1.3 0.2 0.7 0.6 1.2l13.5 19.9c0.8 1.2 2.1 2 3.5 2.3 1.5 0.3 2.9-0.1 4.1-0.9 1.3-0.8 2.1-2.1 2.4-3.5 0.2-1.4-0.1-2.9-0.9-4.1z"/>
	<path class="s2" d="m136.7 208.8l-22.3-9c-1.3-0.6-2.8-0.6-4.2 0-1.3 0.6-2.4 1.6-2.9 3-0.6 1.3-0.6 2.8 0 4.2 0.6 1.3 1.7 2.4 3 2.9l22.2 9.1c1.4 0.5 2.9 0.5 4.3-0.1 1.3-0.5 2.4-1.6 2.9-3 0.6-1.3 0.5-2.8 0-4.2-0.6-1.3-1.7-2.4-3-2.9z"/>
	<path class="s2" d="m279.5 406.9q-1.1 0-2.1 0.4-1 0.4-1.8 1.2-0.8 0.8-1.2 1.8-0.4 1-0.4 2.1v24c0 1.4 0.6 2.8 1.6 3.9 1 1 2.4 1.6 3.9 1.6 1.5 0 2.9-0.6 3.9-1.6 1-1.1 1.6-2.5 1.6-3.9v-24q0-1.1-0.4-2.1-0.4-1-1.2-1.8-0.8-0.8-1.8-1.2-1-0.4-2.1-0.4z"/>
	<path class="s2" d="m388.8 404.2l-13.5-19.8c-0.8-1.2-2.1-2.1-3.5-2.4-1.5-0.2-2.9 0.1-4.2 0.9-1.2 0.8-2 2.1-2.3 3.5-0.2 1.5 0.1 2.9 0.9 4.1l13.5 19.9q0.4 0.6 1 1 0.5 0.5 1.1 0.8 0.7 0.3 1.4 0.5 0.7 0.1 1.4 0.1 2.4-1.7 4.7-3.4 0.3-0.7 0.4-1.3 0.1-0.7 0-1.4 0-0.7-0.3-1.3-0.2-0.6-0.6-1.2z"/>
	<path class="s2" d="m447.7 311.8l-22.3-9c-1.3-0.6-2.8-0.6-4.2 0-1.3 0.6-2.4 1.6-2.9 3-0.6 1.3-0.6 2.8 0 4.2 0.6 1.3 1.7 2.4 3 2.9l22.2 9.1c1.4 0.5 2.9 0.5 4.3-0.1 1.3-0.5 2.4-1.6 2.9-3 0.6-1.3 0.5-2.8 0-4.2-0.6-1.3-1.7-2.4-3-2.9z"/>
	<path class="s2" d="m190.3 382.9q-0.9-0.6-1.9-0.8-1.1-0.3-2.2-0.1-1 0.3-2 0.9-0.9 0.6-1.5 1.5l-13.5 19.8q-0.4 0.6-0.6 1.2-0.3 0.6-0.3 1.3-0.1 0.7 0 1.4 0.1 0.6 0.4 1.3 2.3 1.7 4.7 3.4 0.7 0 1.4-0.1 0.7-0.2 1.4-0.5 0.6-0.3 1.1-0.8 0.6-0.4 1-1l13.5-19.9q0.6-0.9 0.8-1.9 0.3-1.1 0.1-2.2-0.3-1-0.8-2-0.6-0.9-1.6-1.5z"/>
	<path class="s2" d="m139.7 305.8q-0.4-1-1.2-1.8-0.7-0.8-1.7-1.2-1.1-0.4-2.1-0.4-1.1-0.1-2.2 0.4l-22.2 9c-1.3 0.5-2.4 1.6-3 2.9-0.6 1.4-0.6 2.9 0 4.2 0.5 1.4 1.6 2.5 2.9 3 1.4 0.6 2.9 0.6 4.2 0.1l22.3-9.1q1-0.4 1.8-1.1 0.8-0.8 1.2-1.8 0.4-1 0.4-2.1 0-1.1-0.4-2.1z"/>
	<path class="s5" d="m286.6 258.1c0.3 1.5 0.2 3-0.1 4.5-0.3 1.5-1 2.9-1.8 4.1-0.9 1.2-2 2.3-3.3 3.1-1.3 0.8-2.7 1.3-4.2 1.6l-97.6 16.6c-3 0.5-6.1-0.2-8.6-2-2.4-1.7-4.1-4.4-4.6-7.4-0.5-3 0.2-6.1 1.9-8.6 1.8-2.5 4.5-4.2 7.5-4.7l97.6-16.6c1.5-0.2 3-0.2 4.5 0.2 1.4 0.3 2.8 0.9 4 1.8 1.3 0.9 2.3 2 3.1 3.2 0.8 1.3 1.4 2.7 1.6 4.2z"/>
	<path class="s5" d="m389.4 366.3q-1.1 1-2.5 1.6-1.4 0.6-2.8 0.6-1.5 0-2.9-0.6-1.4-0.5-2.5-1.6l-105-104.2c-1.4-1.4-2.2-3.3-2.2-5.3 0-2 0.7-3.9 2.1-5.3 1.4-1.4 3.4-2.2 5.3-2.2 2-0.1 3.9 0.7 5.3 2.1l105.1 104.3q1.1 1 1.6 2.4 0.6 1.4 0.6 2.9 0 1.4-0.5 2.8-0.6 1.4-1.6 2.5z"/>
	<path fill-rule="evenodd" class="s1" d="m279 273.9c-7.2 0-13-5.8-13-13 0-7.2 5.8-13 13-13 7.2 0 13 5.8 13 13 0 7.2-5.8 13-13 13z"/>
	<path class="s0" d="m189.5 35.4c-20 31.4-50.4 52.2-88 65.9q-1.1 0.9-2.5 1.2-1.3 0.3-2.7 0.2-1.4-0.2-2.6-1-1.2-0.7-2.1-1.8c-20.4-27.2-15.8-66.2 11.2-87 6.5-5 13.9-8.7 21.8-10.8 8-2.1 16.3-2.6 24.4-1.5 8.2 1.1 16 3.8 23.1 7.9 7.1 4.2 13.3 9.7 18.2 16.3l0.6 0.8q0.8 1.1 1.2 2.4 0.3 1.4 0.1 2.8-0.2 1.4-0.9 2.6-0.7 1.2-1.8 2z"/>
	<path class="s0" d="m367.7 24.8c4.9-6.6 11.1-12.1 18.2-16.3 7.1-4.1 14.9-6.8 23.1-7.9 8.1-1.1 16.4-0.6 24.4 1.5 7.9 2.1 15.3 5.8 21.8 10.8 27 20.8 31.6 59.8 11.2 87q-0.9 1.1-2.1 1.8-1.2 0.8-2.6 1-1.4 0.1-2.7-0.2-1.4-0.3-2.5-1.2c-34.9-13.3-63.5-36.4-88-65.9q-1.1-0.8-1.8-2-0.7-1.2-0.9-2.6-0.2-1.4 0.1-2.8 0.4-1.3 1.2-2.4z"/>
	<path class="s0" d="m358.9 447.1q-0.9 0.6-1.6 1.4-0.7 0.9-1 1.9-0.3 1.1-0.1 2.2 0.1 1.1 0.6 2l31.8 56.7c0.7 1.3 1.9 2.3 3.3 2.6 1.4 0.4 2.9 0.3 4.2-0.4 1.2-0.8 2.2-1.9 2.6-3.3 0.4-1.5 0.2-3-0.5-4.2l-31.8-56.8q-0.5-0.9-1.4-1.6-0.8-0.7-1.9-1-1-0.3-2.1-0.1-1.1 0.1-2.1 0.6z"/>
	<path class="s0" d="m191.6 449.2l-31.8 56.8c-0.7 1.2-0.9 2.7-0.5 4.2 0.4 1.4 1.4 2.5 2.6 3.3 1.3 0.7 2.8 0.8 4.2 0.4 1.4-0.3 2.6-1.3 3.3-2.6l31.8-56.7c0.7-1.3 0.9-2.8 0.5-4.2-0.4-1.4-1.4-2.6-2.6-3.3-1.3-0.7-2.8-0.9-4.2-0.5-1.4 0.4-2.6 1.4-3.3 2.6z"/>
	<path fill-rule="evenodd" class="s0" d="m395 525.9c-9.4 0-17-7.6-17-17 0-9.4 7.6-17 17-17 9.4 0 17 7.6 17 17 0 9.4-7.6 17-17 17z"/>
	<path fill-rule="evenodd" class="s0" d="m406 90.9c-9.4 0-17-7.6-17-17 0-9.4 7.6-17 17-17 9.4 0 17 7.6 17 17 0 9.4-7.6 17-17 17z"/>
	<path fill-rule="evenodd" class="s0" d="m278 50.9c-9.4 0-17-7.6-17-17 0-9.4 7.6-17 17-17 9.4 0 17 7.6 17 17 0 9.4-7.6 17-17 17z"/>
	<path fill-rule="evenodd" class="s0" d="m155 88.9c-9.4 0-17-7.6-17-17 0-9.4 7.6-17 17-17 9.4 0 17 7.6 17 17 0 9.4-7.6 17-17 17z"/>
	<path fill-rule="evenodd" class="s0" d="m166 525.9c-9.4 0-17-7.6-17-17 0-9.4 7.6-17 17-17 9.4 0 17 7.6 17 17 0 9.4-7.6 17-17 17z"/>
	<path class="s6" d="m381.7 356.7c0.6 1.1 1.5 1.9 2.6 2.6 1 0.7 2.2 1.1 3.4 1.3 1.3 0.1 2.5 0 3.7-0.4 1.2-0.3 2.3-1 3.2-1.8l26.7 14.3-1.4-15.7-25.2-11.2c-1.5-1.4-3.5-2.2-5.6-2.3-2.1-0.1-4.1 0.6-5.7 2-1.6 1.3-2.7 3.2-3 5.3-0.3 2 0.1 4.1 1.3 5.9z"/>
	<path class="s5" d="m401.1 362.2l10.5-14.5 50.3 23.8 62.7-11.7c3.1-0.6 6.3-0.5 9.3 0.3 3.1 0.8 5.9 2.2 8.3 4.3 2.5 2 4.4 4.5 5.8 7.3 1.3 2.9 2 6 2 9.2 0 2.8-0.5 5.6-1.6 8.2-1.1 2.6-2.7 4.9-4.7 6.9-1.9 2-4.3 3.6-6.9 4.7-2.6 1.1-5.4 1.7-8.2 1.7l-71.8 0.1z"/>
	<path fill-rule="evenodd" class="s6" d="m385 611.4l-10.6-5.1 14.6-44.2 15.6 7.5-19.6 41.8z"/>
	<path class="s6" d="m455.9 604.3q-1.1 0.7-2.3 1.4-2.3 1.4-4.7 2.8-1.2 0.7-2.3 1.4h-0.1l-1.2 0.3-1.7-4.5-0.8-2.1-1.1-3-2.1-5.4-10.8-28.5 16.8-4.2 0.6 2.6 0.4 1.3 5.8 23.8 1.2 4.8 0.1 0.2 0.7 2.9 0.6 2.5 0.7 2.8z"/>
	<path class="s7" d="m556.1 504.1q-1.6 2.6-3.3 5.1-3 4.8-6.3 9.3 0 0 0 0-0.4 0.5-0.9 0.9-0.5 0.4-1 0.8-0.6 0.3-1.1 0.7-0.5 0.3-1.1 0.6-0.1 0.1-0.2 0.2-0.4 0.2-0.8 0.4-0.4 0.2-0.9 0.4-0.4 0.1-0.9 0.3-0.4 0.1-0.9 0.2-0.6 0.2-1.3 0.4-2.3 0.5-4.6 0.9-4.2 0.8-8.2 1.1-0.3 0-0.7 0.1c-11.1 0.8-21.9-0.5-33.2-2.7-5.6-1-11.3-2.3-17.2-3.6q-2.9-0.7-5.8-1.3-0.2-0.1-0.4-0.1-4.2-0.9-8.6-1.8-5.5-1.2-11.4-2.2l0.3 5.5q0.1 1.6 0.3 3.2 0.2 1.6 0.5 3.2 0.4 1.5 0.8 3.1 0.5 1.5 1 3c1.7 4.9 3 8.8 0.2 16.9l-1.3 3.9q0.5 1.4 0.7 3 0.2 1.5 0 3.1-0.2 1.5-0.7 3-0.6 1.4-1.4 2.7l-0.3 0.4 11.3 28.5 0.7 1.9h-5.7-7.1-12.1l-17.3-34.8-0.9-1.7v-0.1l1.8-66.9q0.1-0.9 0.2-1.8 0.2-2 0.8-3.9 0.7-2 1.7-3.7 1-1.8 2.3-3.3 1.3-1.6 2.9-2.8 1.6-1.2 3.3-2.1 1.7-0.9 3.6-1.4 1.9-0.5 3.8-0.6 2-0.2 3.9 0.1l6 0.8 12.1 1.5 8.6 1.1 0.1 0.1 25.3 3.2 1.8-7.4 0.3-0.1 10.6-3.9 36.7-13.4 0.1-0.1 2.5-0.8 0.2 0.4q0.2 0.2 0.3 0.4 0.9 1.6 1.7 3.3 0.8 1.6 1.5 3.3 0.8 1.7 1.4 3.4 0.6 1.8 1.2 3.5 0.9 2.9 1.8 5.8 0.8 2.9 1.6 5.8 0.7 2.9 1.4 5.8 0.7 2.9 1.3 5.9 0.1 0.5 0.2 0.9v0.1q0 0.2 0.1 0.3c0.8 3.5 0.2 7.8-1.3 12z"/>
	<path class="s7" d="m557.6 479.5q-0.2-0.8-0.4-1.5-0.5-1.4-1-2.8-0.5-1.4-1-2.7-0.6-1.4-1.1-2.7-0.6-1.4-1.2-2.7c-1.9-4-4.1-8.4-6.7-13.1q-1.9-3.4-4.1-7-1.1-1.9-2.2-3.8 0 0-0.1 0 0-0.1 0-0.1 0 0 0 0 0 0 0-0.1l-0.3-0.3-36.3 4.8-13.5 1.8-0.8 6.8-0.2 1.7q0 0 0 0l-0.6 4.5-0.7 6h-0.1l-20-2.6-20.7-2.7-11.2-1.4q-1.9-0.2-3.8-0.1-2 0.1-3.9 0.6-1.8 0.6-3.6 1.4-1.7 0.9-3.3 2.1-1.6 1.2-2.9 2.8-1.3 1.5-2.3 3.3-1 1.7-1.6 3.7-0.7 1.9-0.9 3.9-0.1 0.8-0.1 1.7l-10.5 24.8q-2.4 5.6-4.3 11.3-1.9 5.7-3.4 11.6-1.5 5.8-2.5 11.8-1.1 5.9-1.7 12l-7.7 24.5 1.1 0.1 16.3 1.6 4.3 0.4 9.5-13.9q1.6-2.3 3.1-4.8 0.6-1.1 1.1-2.1 0.6-1 1.1-2.1 0.5-1 1-2.1 0.5-1.1 0.9-2.2l20.5-48.7q2.4 0.4 4.8 0.7 10.7 1.8 20.7 2.9c21.4 2.4 40.1 2.6 56.6 0.5q7-0.8 13.5-2.2 2.4-0.5 4.7-1.1 0.6-0.1 1.1-0.2 2.4-0.7 4.6-1.9 2.2-1.2 4-2.9 1.8-1.7 3.2-3.7 1.3-2.1 2.1-4.5 0.5-1.4 0.7-2.8 0.3-1.4 0.4-2.8 0-1.5-0.1-2.9-0.2-1.4-0.5-2.8z"/>
	<path class="s7" d="m388.4 604.2l-11.5-5.5-1.8-0.9-2.8 7.1-20 4.4c-1 0.2-1.9 0.7-2.6 1.5-0.7 0.7-1.1 1.7-1.2 2.7 0 1 0.2 2 0.7 2.9 0.6 0.9 1.3 1.5 2.3 1.9l19.5 8 6.2-5.6-1.5 7.5 7.4 3 8.1-25.7z"/>
	<path fill-rule="evenodd" class="s7" d="m458.7 593.3l0.7 1.9h-0.7v-1.9z"/>
	<path class="s7" d="m454.7 595.6l-12 4.1-1.9 0.7 3 7-11.2 17.2c-0.5 0.9-0.8 1.9-0.7 2.9 0 1 0.4 2 1.1 2.7 0.6 0.8 1.5 1.4 2.5 1.6 1 0.3 2 0.2 2.9-0.2l19.6-8.1 0.4-8.3 4.2 6.4 7.4-3.1-12.4-23.9z"/>
	<path class="s5" d="m554.6 490.7q-0.3 0-0.5 0-0.3 0-0.5-0.1-0.3-0.1-0.5-0.2-0.3-0.1-0.5-0.2l-63.3-33-0.7-3-1.4-9.5v-0.1l6-27.7c-0.1-0.3-0.3-0.7-0.6-1.1-2.7-4.6-10.8-18.4 4.8-37.5l27.4-31.9 23.5-1 0.2 0.3c3.2 3.9 5.8 8.2 7.9 12.8 2.1 4.6 3.6 9.4 4.5 14.3 0.9 5 1.2 10 0.9 15-0.4 5-1.3 10-2.9 14.8l-2.4 44.2 2.6 8.9q0.6 2 0.8 4 0.3 2 0.2 4.1-0.1 2-0.5 4-0.4 2-1.2 3.9l0.6 14.4q0 0.9-0.3 1.8-0.3 0.8-0.9 1.5-0.6 0.6-1.5 1-0.8 0.3-1.7 0.3z"/>
	<path class="s6" d="m499.7 527.2c1.1-0.6 2-1.5 2.7-2.5 0.7-1.1 1.2-2.2 1.4-3.4 0.2-1.3 0.1-2.5-0.2-3.7-0.3-1.2-0.9-2.3-1.7-3.3l15.2-26.1-15.7 0.8-12.1 24.7c-1.5 1.5-2.4 3.5-2.5 5.6-0.2 2.1 0.5 4.1 1.8 5.8 1.2 1.6 3.1 2.8 5.1 3.2 2.1 0.4 4.2 0 6-1.1z"/>
	<path class="s5" d="m505.9 508l-14.1-11 25.6-49.5-9.6-63c-0.5-3.1-0.3-6.3 0.6-9.3 0.9-3.1 2.5-5.9 4.6-8.2 2.1-2.4 4.6-4.2 7.5-5.5 2.9-1.2 6.1-1.8 9.2-1.7 2.8 0.1 5.6 0.7 8.2 1.9 2.5 1.2 4.8 2.8 6.8 4.9 1.9 2 3.4 4.5 4.4 7.1 1 2.6 1.5 5.4 1.4 8.3l-2.4 71.7z"/>
	<path id="f4e08e8b-ef08-4d70-8ad3-b81af8a71ff9-140" class="s7" d="m509.7 333.1v-23.3c0-8.2 3.3-16.2 9.1-22 5.8-5.9 13.8-9.2 22-9.2 8.3 0 16.2 3.3 22.1 9.2 5.8 5.8 9.1 13.7 9.1 22 5.5 11.5 2.1 16.9 0 23.3q0 0.8-0.3 1.6-0.3 0.8-0.9 1.4-0.6 0.5-1.4 0.9-0.7 0.3-1.6 0.3h-53.9q-0.9 0-1.6-0.3-0.8-0.3-1.4-0.9-0.6-0.6-0.9-1.4-0.3-0.8-0.3-1.6z"/>
	<path fill-rule="evenodd" class="s6" d="m530.6 335.8c-12.9 0-23.3-10.5-23.3-23.4 0-12.9 10.4-23.3 23.3-23.3 12.9 0 23.4 10.4 23.4 23.3 0 12.9-10.5 23.4-23.4 23.4z"/>
	<path class="s7" d="m555.1 318.6q-0.4-0.1-0.7-0.2-5.4-0.9-10.9-1.9l-0.3-8.2-4.4 7.4c-10 3.3-19.4 1.4-28.3-2.8q-1.1-0.5-2.1-1-1.1-0.6-2.2-1.2-1-0.5-2.1-1.2-1-0.6-2-1.2 0.5-3.4 1.8-6.6 1.3-3.2 3.3-6.1 2-2.8 4.5-5.2 2.6-2.3 5.6-4 0.5-0.3 1-0.5 0 0 0 0 0 0 0 0 0 0 0 0 0 0 0 0 0.8-0.4 1.7-0.8c2.3-0.9 4.6-1.4 7-1.7 2.4-0.2 4.9 0 7.3 0.4 2.3 0.5 4.6 1.3 6.8 2.4 2.1 1.1 4.1 2.5 5.9 4.1 7.1 6.8 10.3 18.1 8.1 28.3z"/>
</svg>