<svg width="101" height="101" viewBox="0 0 101 101" fill="none" xmlns="http://www.w3.org/2000/svg">
<g clip-path="url(#clip0_935_1486)">
<mask id="mask0_935_1486" style="mask-type:luminance" maskUnits="userSpaceOnUse" x="0" y="0" width="101" height="101">
<path d="M100.5 0.1875H0.5V100.188H100.5V0.1875Z" fill="white"/>
</mask>
<g mask="url(#mask0_935_1486)">
<path d="M50.4662 100.169C22.9374 100.169 0.541016 77.7723 0.541016 50.2435C0.541016 22.7147 22.9374 0.318359 50.4662 0.318359C77.9949 0.318359 100.391 22.7147 100.391 50.2435C100.391 77.7723 77.9949 100.169 50.4662 100.169ZM50.4662 1.3052C23.4816 1.3052 1.52786 23.2589 1.52786 50.2435C1.52786 77.2281 23.4816 99.1818 50.4662 99.1818C77.4508 99.1818 99.4045 77.2281 99.4045 50.2435C99.4045 23.2589 77.4508 1.3052 50.4662 1.3052Z" fill="#63C3AC"/>
<path d="M43.722 75.9715C42.8684 75.9715 42.0265 75.7727 41.2631 75.3908C40.4996 75.009 39.8356 74.4546 39.3236 73.7716L25.8379 55.7903C25.4046 55.2126 25.0894 54.5553 24.9103 53.8558C24.7311 53.1563 24.6914 52.4284 24.7936 51.7136C24.8957 50.9988 25.1376 50.3111 25.5056 49.6898C25.8735 49.0685 26.3601 48.5257 26.9378 48.0925C27.5155 47.6593 28.1728 47.3441 28.8723 47.1649C29.5718 46.9857 30.2997 46.946 31.0145 47.0482C31.7294 47.1503 32.417 47.3923 33.0384 47.7602C33.6597 48.1281 34.2024 48.6148 34.6356 49.1924L43.4585 60.9553L66.1188 26.9653C66.9281 25.7529 68.1858 24.9115 69.6154 24.626C71.0449 24.3406 72.5293 24.6344 73.7422 25.4431C74.9552 26.2517 75.7974 27.5089 76.0837 28.9382C76.37 30.3676 76.077 31.8521 75.2692 33.0656L48.2977 73.5228C47.8098 74.2545 47.1536 74.8585 46.3841 75.2843C45.6145 75.71 44.7542 75.9451 43.8751 75.9697C43.8241 75.9706 43.7731 75.9715 43.722 75.9715Z" fill="#63C3AC"/>
</g>
</g>
<defs>
<clipPath id="clip0_935_1486">
<rect width="101" height="101" fill="white"/>
</clipPath>
</defs>
</svg>
