<svg xmlns="http://www.w3.org/2000/svg" xmlns:xlink="http://www.w3.org/1999/xlink" version="1.1" x="0px" y="0px" viewBox="0 0 246.065 132.691" enable-background="new 0 0 246.065 132.691" xml:space="preserve">
	<g id="Layer_3">
	</g>
	<g id="Layer_1">
		<g>
			<path d="M197.726,58.086c1.347-0.383,2.777-0.576,4.306-0.576c4.072,0,7.37,1.318,9.883,3.951    c2.522,2.623,3.787,5.723,3.787,9.294c0,2.51-0.604,4.862-1.813,7.06c-1.2,2.196-3.54,5.18-7.017,8.927l-11.019,11.892h20.443    v4.277h-30.074l16.922-18.273c3.428-3.681,5.663-6.405,6.699-8.181c1.037-1.771,1.552-3.645,1.552-5.606    c0-2.491-0.927-4.637-2.79-6.43c-1.854-1.792-4.129-2.694-6.822-2.694c-1.54,0-2.936,0.28-4.197,0.837    C197.699,61.49,197.74,58.486,197.726,58.086z" fill="#FF7300"/>
			<g>
				
				<path d="M165.385,29.706c-16.745,0-30.319,13.537-30.319,30.235s13.574,30.235,30.319,30.235     c16.744,0,30.319-13.537,30.319-30.235S182.129,29.706,165.385,29.706z M165.385,84.557c-13.451,0-24.356-11.021-24.356-24.616     s10.905-24.616,24.356-24.616s24.356,11.021,24.356,24.616S178.836,84.557,165.385,84.557z" fill="#FF7300"/>
				<path fill="#FF7300" d="M189.66,58.023l-8.826,0.021l-4.4,7.918l-10.98-26.767l-9.878,21.988l-14.517-0.031     c0.058,1.211,0.205,2.399,0.431,3.558l16.385,0.035l7.43-16.54l10.645,25.949l6.979-12.558l6.752-0.016     c0.035-0.542,0.06-1.088,0.06-1.639C189.741,59.295,189.708,58.657,189.66,58.023z"/>
			</g>
		</g>
	</g>
	<g id="menu">
	</g>
	</svg>