<svg width="31" height="28" viewBox="0 0 31 28" fill="none" xmlns="http://www.w3.org/2000/svg">
<path d="M23.8384 10.855C24.3511 10.7085 24.896 10.6348 25.4778 10.6348C27.0282 10.6348 28.2836 11.1389 29.2404 12.1458C30.2004 13.1494 30.6823 14.3346 30.6823 15.7006C30.6823 16.6609 30.4523 17.5603 29.9921 18.4011C29.5353 19.2411 28.6444 20.3826 27.3207 21.8156L23.1259 26.364H30.9091V28.0001H19.459L25.9015 21.0104C27.2066 19.6021 28.0573 18.5605 28.4522 17.8813C28.847 17.204 29.043 16.4873 29.043 15.7372C29.043 14.7845 28.6903 13.9636 27.9807 13.2778C27.2748 12.5924 26.4085 12.2476 25.3836 12.2476C24.7975 12.2476 24.2659 12.3546 23.7859 12.5677C23.828 12.1567 23.8431 11.0081 23.8384 10.855Z" fill="#FF7300"/>
<path d="M11.5429 0C5.1681 0 0 5.17807 0 11.5652C0 17.9522 5.1681 23.1303 11.5429 23.1303C17.9177 23.1303 23.0858 17.9522 23.0858 11.5652C23.0858 5.17807 17.9177 0 11.5429 0ZM11.5429 20.981C6.42167 20.981 2.27042 16.7656 2.27042 11.5652C2.27042 6.36473 6.42214 2.14932 11.5429 2.14932C16.6641 2.14932 20.8154 6.36473 20.8154 11.5652C20.8154 16.7656 16.6641 20.981 11.5429 20.981Z" fill="#FF7300"/>
<path d="M20.7684 10.8303L17.4083 10.8383L15.7329 13.8671L11.5528 3.62891L7.79208 12.0393L2.26514 12.0274C2.28739 12.4906 2.34325 12.9449 2.42893 13.3881L8.66692 13.4015L11.496 7.07524L15.5487 17.0009L18.2059 12.1972L20.7765 12.191C20.7897 11.9836 20.7992 11.7748 20.7992 11.5641C20.7987 11.3168 20.7869 11.0728 20.7684 10.8303Z" fill="#FF7300"/>
</svg>
