<svg width="71" height="28" viewBox="0 0 71 28" fill="none" xmlns="http://www.w3.org/2000/svg">
<path d="M26.2817 1.34321L20.2999 16.6838L14.2853 0.277344L7.91098 16.6472L2.47399 1.34321H0L7.81394 22.836L14.2252 6.46563L20.2336 22.8536L28.7552 1.34321H26.2817Z" fill="#FF7300"/>
<path d="M38.3125 12.2628C37.3146 11.4433 32.0882 8.71567 31.416 8.24386C30.7461 7.77347 30.4096 7.08858 30.4096 6.18966C30.4096 5.28931 30.7509 4.55828 31.4321 3.99705C32.1133 3.43202 32.9423 3.15331 33.9189 3.15331C34.5485 3.15331 35.0863 3.27506 35.5355 3.52191C35.9829 3.76781 36.4104 4.16732 36.8161 4.71904L37.031 5.05388C37.0907 5.09716 37.174 5.19942 37.2758 5.36018L39.0761 4.19634C38.4858 3.1533 37.7492 2.3614 36.8625 1.81872C35.9786 1.27746 35.0266 1.00684 34.0112 1.00684C32.2814 1.00684 30.8659 1.49625 29.7672 2.47793C28.6698 3.45913 28.1211 4.71857 28.1211 6.25244C28.1211 7.70213 28.6173 8.82221 29.6142 9.60793C30.6126 10.3946 35.5857 12.9882 36.3583 13.5199C37.1318 14.0502 37.5167 14.8369 37.5167 15.8804C37.5167 17.0661 37.1281 18.0506 36.3432 18.8364C35.5592 19.6254 34.5665 20.0173 33.3688 20.0173C32.3112 20.0173 31.4368 19.6906 30.7457 19.0357C30.0536 18.3807 29.5641 17.4442 29.2796 16.2171L27.082 16.893C27.2733 17.7206 27.5535 18.4583 27.9152 19.1008C28.2873 19.7562 28.747 20.3127 29.2957 20.7693C30.3835 21.6806 31.7621 22.1357 33.4313 22.1357C35.2008 22.1357 36.7048 21.5255 37.947 20.3103C39.1864 19.0942 39.8075 17.6074 39.8075 15.8481C39.808 14.2752 39.31 13.0785 38.3125 12.2628Z" fill="#FF7300"/>
<path d="M63.9292 10.855C64.4419 10.7085 64.9868 10.6348 65.5686 10.6348C67.119 10.6348 68.3745 11.1389 69.3312 12.1458C70.2912 13.1494 70.7732 14.3346 70.7732 15.7006C70.7732 16.6609 70.5431 17.5603 70.083 18.4011C69.6261 19.2411 68.7352 20.3826 67.4116 21.8156L63.2168 26.364H70.9999V28.0001H59.5498L65.9923 21.0104C67.2975 19.6021 68.1482 18.5605 68.543 17.8813C68.9378 17.204 69.1338 16.4873 69.1338 15.7372C69.1338 14.7845 68.7811 13.9636 68.0715 13.2778C67.3656 12.5924 66.4993 12.2476 65.4744 12.2476C64.8883 12.2476 64.3567 12.3546 63.8767 12.5677C63.9188 12.1567 63.934 11.0081 63.9292 10.855Z" fill="#FF7300"/>
<path d="M51.6337 0C45.2589 0 40.0908 5.17807 40.0908 11.5652C40.0908 17.9522 45.2589 23.1303 51.6337 23.1303C58.0085 23.1303 63.1766 17.9522 63.1766 11.5652C63.1766 5.17807 58.0085 0 51.6337 0ZM51.6337 20.981C46.5125 20.981 42.3612 16.7656 42.3612 11.5652C42.3612 6.36473 46.513 2.14932 51.6337 2.14932C56.755 2.14932 60.9062 6.36473 60.9062 11.5652C60.9062 16.7656 56.755 20.981 51.6337 20.981Z" fill="#FF7300"/>
<path d="M60.8593 10.8303L57.4991 10.8383L55.8237 13.8671L51.6436 3.62891L47.8829 12.0393L42.356 12.0274C42.3782 12.4906 42.4341 12.9449 42.5198 13.3881L48.7577 13.4015L51.5868 7.07524L55.6396 17.0009L58.2967 12.1972L60.8673 12.191C60.8806 11.9836 60.89 11.7748 60.89 11.5641C60.8896 11.3168 60.8777 11.0728 60.8593 10.8303Z" fill="#FF7300"/>
</svg>
