<svg width="101" height="98" viewBox="0 0 101 98" fill="none" xmlns="http://www.w3.org/2000/svg">
<g clip-path="url(#clip0_452_1456)">
<path d="M99.7913 16.7485C97.9457 10.5663 92.7315 6.53041 86.4309 5.64502C86.3616 5.63525 86.2958 5.64816 86.2268 5.64371C86.1376 5.61644 86.0466 5.59548 85.9545 5.58098C77.2898 4.46114 67.8311 6.46674 60.3029 11.177C53.0868 15.6921 44.7953 18.2397 36.2833 18.183C36.0189 18.1813 35.7536 18.187 35.4872 18.2002C28.9365 18.5271 23.1554 23.2955 21.3845 29.5674C21.1521 30.3902 21.5571 31.1255 22.2083 31.5918C23.3527 32.4114 24.1343 32.9859 25.5423 33.2841C28.0545 33.8164 30.5754 34.3058 33.1048 34.7523V24.6769C33.1059 23.723 33.4853 22.8086 34.1598 22.1341C34.8343 21.4596 35.7487 21.0802 36.7026 21.0791H86.1221C87.076 21.0802 87.9904 21.4596 88.6649 22.1341C89.3394 22.8086 89.7188 23.723 89.7199 24.6769V37.2244C90.3977 37.0125 91.0594 36.752 91.6998 36.4451C94.0838 35.2676 96.1206 33.4902 97.61 31.2875C100.471 27.1361 101.227 21.5567 99.7913 16.7485Z" fill="#FFC799"/>
<path d="M78.9839 75.713H35.2965C34.2883 75.7118 33.3218 75.3108 32.609 74.5979C31.8961 73.8851 31.4951 72.9186 31.4939 71.9104V54.9585C26.1728 53.3295 20.5686 52.8383 15.0452 53.5167C14.9531 53.5312 14.8621 53.5522 14.7729 53.5795C14.7039 53.5839 14.6381 53.571 14.5688 53.5808C8.26818 54.4662 3.05401 58.5021 1.20839 64.6843C-0.227144 69.4924 0.528544 75.0718 3.38969 79.2233C4.87912 81.4259 6.91587 83.2033 9.2999 84.3808C12.5768 85.9593 16.0259 86.078 19.6025 86.1895C30.341 86.5246 41.0898 86.1183 51.7724 84.9735C57.0296 84.4096 62.265 83.6728 67.4785 82.7629C70.147 82.2959 72.8066 81.7815 75.4574 81.2199C76.8654 80.9216 77.647 80.3472 78.7914 79.5276C79.4426 79.0613 79.8476 78.326 79.6152 77.5031C79.4425 76.8937 79.2317 76.2958 78.9839 75.713Z" fill="#FFC799"/>
<path d="M82.85 70.6838H39.9748C39.1473 70.6829 38.3539 70.3537 37.7688 69.7685C37.1836 69.1834 36.8545 68.39 36.8535 67.5625V27.7178C36.8545 26.8902 37.1836 26.0969 37.7688 25.5117C38.3539 24.9266 39.1473 24.5974 39.9748 24.5964H82.85C83.6775 24.5974 84.4709 24.9266 85.056 25.5117C85.6412 26.0969 85.9703 26.8902 85.9713 27.7178V67.5625C85.9703 68.39 85.6412 69.1834 85.056 69.7685C84.4709 70.3537 83.6775 70.6829 82.85 70.6838Z" fill="#D8DAE5"/>
<path d="M73.8266 68.5784H42.0813C41.2538 68.5775 40.4604 68.2483 39.8752 67.6631C39.2901 67.078 38.9609 66.2846 38.96 65.4571V29.8248C38.9609 28.9973 39.2901 28.2039 39.8752 27.6188C40.4604 27.0336 41.2538 26.7045 42.0813 26.7035H80.7452C81.5727 26.7045 82.3661 27.0336 82.9512 27.6188C83.5364 28.2039 83.8655 28.9973 83.8665 29.8248V58.5385C83.8635 61.2003 82.8048 63.7523 80.9226 65.6345C79.0404 67.5167 76.4884 68.5754 73.8266 68.5784Z" fill="white"/>
<path d="M61.4127 61.6318C69.1396 61.6318 75.4035 55.3679 75.4035 47.641C75.4035 39.9141 69.1396 33.6501 61.4127 33.6501C53.6858 33.6501 47.4219 39.9141 47.4219 47.641C47.4219 55.3679 53.6858 61.6318 61.4127 61.6318Z" fill="#FF7300"/>
<path d="M67.3067 46.9371L62.6378 41.2596C62.5112 41.1056 62.3526 40.9809 62.173 40.8943C61.9934 40.8076 61.7971 40.7611 61.5977 40.7578C61.3983 40.7545 61.2006 40.7945 61.0182 40.8752C60.8359 40.9558 60.6732 41.0752 60.5415 41.2249L55.5487 46.9024C55.3082 47.1765 55.1863 47.535 55.2099 47.8989C55.2335 48.2628 55.4006 48.6026 55.6744 48.8434C55.9483 49.0842 56.3066 49.2065 56.6706 49.1834C57.0345 49.1602 57.3744 48.9936 57.6156 48.72L60.1988 45.7825V53.1483C60.1988 53.5133 60.3438 53.8633 60.6019 54.1214C60.8599 54.3795 61.21 54.5245 61.575 54.5245C61.9399 54.5245 62.29 54.3795 62.548 54.1214C62.8061 53.8633 62.9511 53.5133 62.9511 53.1483V45.9738L65.1809 48.6853C65.4127 48.9672 65.747 49.1455 66.1102 49.1809C66.4735 49.2163 66.836 49.1059 67.1179 48.8741C67.3998 48.6423 67.578 48.308 67.6134 47.9447C67.6488 47.5815 67.5385 47.219 67.3067 46.9371Z" fill="white"/>
<path d="M59.3577 97.0433C58.716 97.0433 58.0887 96.853 57.5552 96.4965C57.0216 96.14 56.6058 95.6333 56.3602 95.0405C56.1147 94.4476 56.0504 93.7953 56.1756 93.1659C56.3008 92.5366 56.6098 91.9585 57.0635 91.5048C57.5173 91.051 58.0954 90.742 58.7247 90.6168C59.3541 90.4917 60.0064 90.5559 60.5992 90.8015C61.1921 91.047 61.6988 91.4629 62.0553 91.9964C62.4118 92.5299 62.6021 93.1572 62.6021 93.7989C62.6011 94.6591 62.2589 95.4837 61.6507 96.0919C61.0425 96.7002 60.2178 97.0423 59.3577 97.0433ZM59.3577 91.0132C58.8067 91.0132 58.2681 91.1766 57.81 91.4827C57.3519 91.7888 56.9949 92.2238 56.784 92.7329C56.5732 93.2419 56.518 93.802 56.6255 94.3423C56.733 94.8827 56.9983 95.3791 57.3879 95.7687C57.7775 96.1582 58.2738 96.4236 58.8142 96.531C59.3546 96.6385 59.9147 96.5834 60.4237 96.3725C60.9327 96.1617 61.3678 95.8046 61.6739 95.3465C61.98 94.8884 62.1433 94.3498 62.1433 93.7989C62.1425 93.0603 61.8488 92.3523 61.3265 91.83C60.8043 91.3078 60.0962 91.014 59.3577 91.0132Z" fill="#FFC799"/>
<path d="M60.6272 93.6471L59.621 92.4236C59.5937 92.3904 59.5595 92.3636 59.5208 92.3449C59.4821 92.3262 59.4398 92.3162 59.3969 92.3155C59.3539 92.3148 59.3113 92.3234 59.272 92.3408C59.2327 92.3582 59.1976 92.3839 59.1692 92.4161L58.0933 93.6397C58.0419 93.6988 58.0159 93.7759 58.0212 93.8541C58.0264 93.9323 58.0624 94.0052 58.1212 94.057C58.1801 94.1087 58.257 94.1351 58.3353 94.1303C58.4135 94.1255 58.4866 94.0899 58.5387 94.0314L59.0954 93.3983V94.9857C59.0954 95.0643 59.1266 95.1398 59.1822 95.1954C59.2379 95.251 59.3133 95.2822 59.3919 95.2822C59.4706 95.2822 59.546 95.251 59.6016 95.1954C59.6573 95.1398 59.6885 95.0643 59.6885 94.9857V93.4396L60.169 94.0239C60.219 94.0846 60.291 94.123 60.3693 94.1307C60.4476 94.1383 60.5257 94.1145 60.5864 94.0646C60.6472 94.0146 60.6856 93.9426 60.6932 93.8643C60.7009 93.786 60.6771 93.7079 60.6272 93.6471Z" fill="#FFC799"/>
<path d="M96.2844 49.1075C95.6427 49.1075 95.0155 48.9172 94.4819 48.5607C93.9484 48.2042 93.5326 47.6975 93.287 47.1047C93.0414 46.5118 92.9772 45.8595 93.1024 45.2301C93.2276 44.6008 93.5366 44.0227 93.9903 43.569C94.444 43.1152 95.0221 42.8062 95.6515 42.6811C96.2808 42.5559 96.9332 42.6201 97.526 42.8657C98.1188 43.1112 98.6255 43.5271 98.982 44.0606C99.3385 44.5941 99.5288 45.2214 99.5288 45.8631C99.5278 46.7233 99.1857 47.5479 98.5775 48.1561C97.9692 48.7644 97.1446 49.1065 96.2844 49.1075ZM96.2844 43.0774C95.7335 43.0774 95.1949 43.2408 94.7368 43.5469C94.2787 43.853 93.9216 44.2881 93.7108 44.7971C93.5 45.3061 93.4448 45.8662 93.5523 46.4066C93.6598 46.9469 93.9251 47.4433 94.3147 47.8329C94.7042 48.2224 95.2006 48.4878 95.741 48.5952C96.2813 48.7027 96.8414 48.6476 97.3505 48.4367C97.8595 48.2259 98.2945 47.8688 98.6006 47.4107C98.9067 46.9526 99.0701 46.414 99.0701 45.8631C99.0693 45.1245 98.7755 44.4165 98.2533 43.8942C97.7311 43.372 97.023 43.0783 96.2844 43.0774Z" fill="#FFC799"/>
<path d="M97.5539 45.7113L96.5478 44.4878C96.5205 44.4546 96.4863 44.4278 96.4476 44.4091C96.4089 44.3904 96.3666 44.3804 96.3236 44.3797C96.2806 44.379 96.238 44.3876 96.1987 44.405C96.1594 44.4224 96.1244 44.4481 96.096 44.4803L95.02 45.7039C94.9686 45.763 94.9427 45.8401 94.9479 45.9183C94.9532 45.9965 94.9891 46.0694 95.048 46.1212C95.1068 46.1729 95.1838 46.1993 95.262 46.1945C95.3402 46.1897 95.4134 46.1541 95.4655 46.0956L96.0221 45.4625V47.0499C96.0221 47.1286 96.0534 47.204 96.109 47.2596C96.1646 47.3152 96.24 47.3465 96.3187 47.3465C96.3974 47.3465 96.4728 47.3152 96.5284 47.2596C96.584 47.204 96.6153 47.1286 96.6153 47.0499V45.5038L97.0958 46.0881C97.1457 46.1488 97.2178 46.1873 97.2961 46.1949C97.3743 46.2025 97.4524 46.1787 97.5132 46.1288C97.5739 46.0788 97.6124 46.0068 97.62 45.9285C97.6276 45.8502 97.6039 45.7721 97.5539 45.7113Z" fill="#FFC799"/>
<path d="M23.1184 46.3552C22.4767 46.3552 21.8495 46.1649 21.3159 45.8084C20.7824 45.4519 20.3665 44.9452 20.121 44.3523C19.8754 43.7595 19.8112 43.1072 19.9364 42.4778C20.0615 41.8485 20.3705 41.2704 20.8243 40.8166C21.278 40.3629 21.8561 40.0539 22.4855 39.9287C23.1148 39.8035 23.7671 39.8678 24.36 40.1134C24.9528 40.3589 25.4595 40.7748 25.816 41.3083C26.1725 41.8418 26.3628 42.4691 26.3628 43.1108C26.3618 43.9709 26.0197 44.7956 25.4115 45.4038C24.8032 46.012 23.9786 46.3542 23.1184 46.3552ZM23.1184 40.3251C22.5675 40.3251 22.0289 40.4885 21.5708 40.7946C21.1127 41.1007 20.7556 41.5357 20.5448 42.0448C20.3339 42.5538 20.2788 43.1139 20.3863 43.6542C20.4938 44.1946 20.7591 44.691 21.1486 45.0805C21.5382 45.4701 22.0346 45.7354 22.575 45.8429C23.1153 45.9504 23.6754 45.8952 24.1844 45.6844C24.6935 45.4736 25.1285 45.1165 25.4346 44.6584C25.7407 44.2003 25.9041 43.6617 25.9041 43.1108C25.9033 42.3722 25.6095 41.6642 25.0873 41.1419C24.565 40.6197 23.857 40.3259 23.1184 40.3251Z" fill="#FFC799"/>
<path d="M24.3889 42.959L23.3827 41.7355C23.3554 41.7023 23.3213 41.6755 23.2825 41.6568C23.2438 41.6381 23.2015 41.6281 23.1586 41.6274C23.1156 41.6266 23.073 41.6353 23.0337 41.6527C22.9944 41.67 22.9593 41.6958 22.931 41.728L21.855 42.9515C21.8036 43.0107 21.7777 43.0878 21.7829 43.166C21.7881 43.2442 21.8241 43.3171 21.883 43.3689C21.9418 43.4206 22.0187 43.447 22.097 43.4422C22.1752 43.4374 22.2483 43.4018 22.3004 43.3432L22.8571 42.7102V44.2976C22.8571 44.3762 22.8883 44.4517 22.944 44.5073C22.9996 44.5629 23.075 44.5941 23.1537 44.5941C23.2323 44.5941 23.3077 44.5629 23.3634 44.5073C23.419 44.4517 23.4502 44.3762 23.4502 44.2976V42.7514L23.9307 43.3358C23.9807 43.3965 24.0527 43.4349 24.131 43.4426C24.2093 43.4502 24.2874 43.4264 24.3482 43.3765C24.4089 43.3265 24.4473 43.2545 24.455 43.1762C24.4626 43.0979 24.4388 43.0198 24.3889 42.959Z" fill="#FFC799"/>
<path d="M49.0364 6.67627C48.3947 6.67627 47.7674 6.48599 47.2339 6.12949C46.7004 5.77299 46.2845 5.26629 46.039 4.67346C45.7934 4.08062 45.7291 3.42829 45.8543 2.79894C45.9795 2.16959 46.2885 1.5915 46.7422 1.13776C47.196 0.684025 47.7741 0.375028 48.4034 0.249842C49.0328 0.124657 49.6851 0.188903 50.2779 0.434463C50.8708 0.680023 51.3775 1.09587 51.734 1.6294C52.0905 2.16294 52.2808 2.79021 52.2808 3.43188C52.2798 4.29205 51.9377 5.1167 51.3294 5.72493C50.7212 6.33316 49.8965 6.67529 49.0364 6.67627ZM49.0364 0.646221C48.4854 0.64622 47.9468 0.809598 47.4887 1.11569C47.0306 1.42178 46.6736 1.85684 46.4628 2.36586C46.2519 2.87487 46.1968 3.43498 46.3042 3.97535C46.4117 4.51571 46.677 5.01207 47.0666 5.40165C47.4562 5.79124 47.9526 6.05654 48.4929 6.16403C49.0333 6.27152 49.5934 6.21635 50.1024 6.00551C50.6114 5.79467 51.0465 5.43762 51.3526 4.97952C51.6587 4.52142 51.822 3.98284 51.822 3.43188C51.8212 2.69333 51.5275 1.98526 51.0052 1.46302C50.483 0.940788 49.7749 0.64704 49.0364 0.646221Z" fill="#FFC799"/>
<path d="M50.3068 3.28013L49.3007 2.05661C49.2734 2.02342 49.2392 1.99656 49.2005 1.97789C49.1618 1.95922 49.1195 1.94918 49.0766 1.94847C49.0336 1.94775 48.991 1.95639 48.9517 1.97377C48.9124 1.99115 48.8773 2.01686 48.8489 2.04913L47.773 3.27265C47.7216 3.33178 47.6956 3.40888 47.7009 3.48707C47.7061 3.56526 47.7421 3.63821 47.8009 3.68996C47.8598 3.74171 47.9367 3.76807 48.0149 3.76327C48.0932 3.75847 48.1663 3.72291 48.2184 3.66435L48.7751 3.03132V4.61868C48.7751 4.69733 48.8063 4.77276 48.8619 4.82838C48.9175 4.88399 48.993 4.91524 49.0716 4.91524C49.1503 4.91524 49.2257 4.88399 49.2813 4.82838C49.3369 4.77276 49.3682 4.69733 49.3682 4.61868V3.07255L49.8487 3.65688C49.8987 3.71763 49.9707 3.75604 50.049 3.76367C50.1273 3.7713 50.2054 3.74753 50.2661 3.69757C50.3269 3.64761 50.3653 3.57556 50.3729 3.49728C50.3806 3.419 50.3568 3.34088 50.3068 3.28013Z" fill="#FFC799"/>
<path d="M14.4037 70.4377C13.762 70.4377 13.1347 70.2475 12.6011 69.891C12.0676 69.5345 11.6517 69.0278 11.4062 68.4349C11.1606 67.8421 11.0963 67.1897 11.2215 66.5603C11.3467 65.931 11.6557 65.3529 12.1095 64.8991C12.5632 64.4454 13.1413 64.1364 13.7707 64.0112C14.4 63.886 15.0524 63.9503 15.6452 64.1958C16.2381 64.4414 16.7448 64.8573 17.1013 65.3908C17.4578 65.9244 17.6481 66.5516 17.6481 67.1933C17.6471 68.0535 17.305 68.8782 16.6967 69.4864C16.0885 70.0946 15.2638 70.4367 14.4037 70.4377ZM14.4037 64.4076C13.8527 64.4076 13.3141 64.5709 12.856 64.877C12.3979 65.1831 12.0408 65.6182 11.83 66.1272C11.6191 66.6362 11.5639 67.1963 11.6714 67.7367C11.7789 68.2771 12.0442 68.7735 12.4338 69.1631C12.8234 69.5527 13.3197 69.818 13.8601 69.9255C14.4005 70.033 14.9606 69.9778 15.4696 69.767C15.9786 69.5561 16.4137 69.1991 16.7198 68.741C17.0259 68.2829 17.1893 67.7443 17.1893 67.1934C17.1885 66.4548 16.8948 65.7467 16.3725 65.2244C15.8503 64.7022 15.1422 64.4084 14.4037 64.4076Z" fill="white"/>
<path d="M15.6731 67.0416L14.6669 65.8181C14.6396 65.7849 14.6054 65.758 14.5667 65.7394C14.528 65.7207 14.4857 65.7107 14.4428 65.7099C14.3998 65.7092 14.3572 65.7179 14.3179 65.7352C14.2786 65.7526 14.2435 65.7783 14.2151 65.8106L13.1392 67.0341C13.0878 67.0933 13.0618 67.1704 13.0671 67.2485C13.0723 67.3267 13.1083 67.3997 13.1671 67.4514C13.226 67.5032 13.3029 67.5295 13.3811 67.5247C13.4594 67.52 13.5325 67.4844 13.5846 67.4258L14.1413 66.7928V68.3802C14.1413 68.4588 14.1725 68.5342 14.2281 68.5899C14.2838 68.6455 14.3592 68.6767 14.4378 68.6767C14.5165 68.6767 14.5919 68.6455 14.6475 68.5899C14.7032 68.5342 14.7344 68.4588 14.7344 68.3802V66.834L15.2149 67.4184C15.2649 67.4791 15.3369 67.5175 15.4152 67.5251C15.4935 67.5328 15.5716 67.509 15.6323 67.459C15.6931 67.4091 15.7315 67.337 15.7391 67.2588C15.7468 67.1805 15.723 67.1024 15.6731 67.0416Z" fill="white"/>
<path d="M84.5863 16.0799C83.9446 16.08 83.3173 15.8897 82.7838 15.5332C82.2502 15.1767 81.8344 14.67 81.5888 14.0771C81.3432 13.4843 81.2789 12.8319 81.4041 12.2026C81.5293 11.5732 81.8383 10.9951 82.2921 10.5413C82.7458 10.0876 83.3239 9.77859 83.9533 9.6534C84.5827 9.52822 85.235 9.59247 85.8279 9.83804C86.4207 10.0836 86.9274 10.4995 87.2839 11.033C87.6404 11.5666 87.8307 12.1939 87.8307 12.8356C87.8297 13.6957 87.4876 14.5204 86.8793 15.1286C86.2711 15.7368 85.4465 16.079 84.5863 16.0799ZM84.5863 10.0498C84.0353 10.0498 83.4967 10.2131 83.0386 10.5192C82.5805 10.8253 82.2234 11.2604 82.0126 11.7694C81.8017 12.2784 81.7466 12.8385 81.854 13.3789C81.9615 13.9193 82.2268 14.4157 82.6164 14.8053C83.006 15.1949 83.5023 15.4602 84.0427 15.5677C84.5831 15.6752 85.1432 15.62 85.6522 15.4092C86.1613 15.1984 86.5963 14.8413 86.9025 14.3832C87.2086 13.9251 87.3719 13.3865 87.372 12.8356C87.3711 12.097 87.0774 11.3889 86.5552 10.8667C86.0329 10.3444 85.3249 10.0506 84.5863 10.0498Z" fill="white"/>
<path d="M85.8567 12.6838L84.8505 11.4603C84.8232 11.4271 84.789 11.4002 84.7503 11.3816C84.7116 11.3629 84.6693 11.3529 84.6263 11.3522C84.5834 11.3514 84.5408 11.3601 84.5015 11.3775C84.4622 11.3948 84.4271 11.4205 84.3987 11.4528L83.3228 12.6763C83.2713 12.7355 83.2454 12.8126 83.2507 12.8908C83.2559 12.969 83.2919 13.0419 83.3507 13.0936C83.4096 13.1454 83.4865 13.1718 83.5647 13.167C83.643 13.1622 83.7161 13.1266 83.7682 13.068L84.3249 12.435V14.0224C84.3249 14.101 84.3561 14.1764 84.4117 14.2321C84.4673 14.2877 84.5428 14.3189 84.6214 14.3189C84.7001 14.3189 84.7755 14.2877 84.8311 14.2321C84.8868 14.1764 84.918 14.101 84.918 14.0224V12.4762L85.3985 13.0606C85.4485 13.1213 85.5205 13.1597 85.5988 13.1674C85.6771 13.175 85.7552 13.1512 85.8159 13.1013C85.8767 13.0513 85.9151 12.9792 85.9227 12.901C85.9304 12.8227 85.9066 12.7446 85.8567 12.6838Z" fill="white"/>
</g>
<defs>
<clipPath id="clip0_452_1456">
<rect width="100" height="97.0183" fill="white" transform="translate(0.5 0.1875)"/>
</clipPath>
</defs>
</svg>
