<?xml version="1.0" encoding="UTF-8"?>
<svg id="Layer_1" data-name="Layer 1" xmlns="http://www.w3.org/2000/svg" viewBox="0 0 1644.49 654.23">
  <g>
    <path d="M352.56,407.24c-.18,0-.37,0-.55-.02-3.98-.24-7.37-2.99-8.42-6.83l-30.08-110.3-15.4,51.45c-1.18,3.93-4.8,6.63-8.91,6.63h-57.7c-5.14,0-9.3-4.16-9.3-9.3s4.16-9.3,9.3-9.3h50.78l22.74-75.95c1.18-3.94,4.8-6.63,8.91-6.63.04,0,.07,0,.12,0,4.15.05,7.76,2.84,8.85,6.85l31.39,115.09,13.6-33.56c1.42-3.51,4.83-5.81,8.62-5.81h46.23c5.14,0,9.3,4.16,9.3,9.3s-4.16,9.3-9.3,9.3h-39.97l-21.59,53.27c-1.43,3.52-4.85,5.81-8.61,5.81Z" fill="#fff"/>
    <path d="M327.12,490.56c-90.12,0-163.44-73.32-163.44-163.44s73.32-163.44,163.44-163.44,163.45,73.32,163.45,163.44-73.32,163.44-163.45,163.44ZM327.12,182.26c-79.87,0-144.85,64.98-144.85,144.85s64.98,144.85,144.85,144.85,144.85-64.98,144.85-144.85-64.98-144.85-144.85-144.85Z" fill="#fff"/>
  </g>
  <g>
    <path d="M640.59,448.89l-65.4-241.2h38.86l34.8,138.24c2.16,8.53,4.16,17.38,5.99,26.55,1.83,9.18,3.64,18.45,5.43,27.84,1.78,9.39,3.48,18.78,5.1,28.17h-5.51c1.73-9.39,3.51-18.78,5.34-28.17,1.83-9.39,3.72-18.67,5.67-27.84,1.94-9.17,4.05-18.02,6.31-26.55l35.78-138.24h40.47l35.45,138.24c2.27,8.53,4.37,17.38,6.31,26.55,1.94,9.18,3.86,18.45,5.75,27.84,1.88,9.39,3.69,18.78,5.42,28.17h-5.82c1.72-9.39,3.45-18.78,5.18-28.17,1.72-9.39,3.58-18.67,5.59-27.84,1.99-9.17,3.97-18.02,5.91-26.55l34.8-138.24h39.18l-65.72,241.2h-42.57l-38.36-142.94c-2.92-11.22-5.62-23.42-8.09-36.58-2.49-13.17-5.02-27.62-7.61-43.38h8.42c-2.7,15.11-5.15,29.09-7.37,41.92-2.21,12.84-4.99,25.53-8.34,38.04l-38.2,142.94h-42.73Z" fill="#fff"/>
    <path d="M984.86,452.94c-18.02,0-33.67-2.86-46.94-8.58-13.28-5.72-23.67-13.89-31.17-24.52-7.5-10.63-11.63-23.28-12.38-37.96h37.07c.76,8.74,3.58,15.97,8.5,21.69,4.91,5.72,11.3,9.98,19.19,12.79,7.87,2.81,16.4,4.21,25.57,4.21,10.26,0,19.35-1.59,27.28-4.77,7.93-3.18,14.22-7.72,18.86-13.6,4.64-5.88,6.96-12.71,6.96-20.48,0-7.02-2.02-12.76-6.07-17.24-4.05-4.48-9.5-8.2-16.35-11.17-6.85-2.97-14.66-5.59-23.39-7.85l-28.17-7.77c-19.75-5.29-35.15-13.11-46.22-23.47-11.06-10.36-16.59-23.8-16.59-40.31,0-13.92,3.75-26.08,11.25-36.5,7.5-10.41,17.7-18.5,30.59-24.28,12.9-5.77,27.44-8.66,43.63-8.66s31.06,2.89,43.63,8.66c12.57,5.78,22.44,13.68,29.63,23.72,7.17,10.04,10.92,21.47,11.25,34.32h-35.94c-1.19-11.01-6.28-19.53-15.29-25.58-9.02-6.04-20.37-9.07-34.08-9.07-9.71,0-18.16,1.51-25.34,4.53-7.18,3.02-12.73,7.2-16.67,12.54-3.94,5.34-5.91,11.41-5.91,18.21,0,7.66,2.35,13.84,7.04,18.54,4.7,4.7,10.42,8.42,17.16,11.17,6.74,2.75,13.19,4.94,19.35,6.55l23.47,6.15c7.66,1.94,15.56,4.56,23.72,7.85,8.15,3.3,15.67,7.56,22.58,12.79,6.91,5.24,12.49,11.71,16.76,19.42,4.26,7.72,6.39,17.03,6.39,27.92,0,13.6-3.51,25.74-10.52,36.42-7.02,10.69-17.19,19.08-30.52,25.18-13.33,6.09-29.44,9.15-48.32,9.15Z" fill="#fff"/>
    <path d="M1198.73,452.13c-20.84,0-39.48-4.94-55.93-14.81-16.46-9.87-29.41-24.06-38.86-42.57-9.44-18.51-14.16-40.6-14.16-66.29s4.72-47.94,14.16-66.45c9.44-18.51,22.4-32.73,38.86-42.66,16.45-9.93,35.09-14.89,55.93-14.89s39.41,4.96,55.76,14.89c16.35,9.93,29.24,24.15,38.69,42.66,9.44,18.51,14.16,40.66,14.16,66.45s-4.73,47.78-14.16,66.29c-9.45,18.51-22.35,32.7-38.69,42.57-16.35,9.88-34.94,14.81-55.76,14.81ZM1198.73,418.46c13.7,0,25.98-3.42,36.82-10.28,10.84-6.85,19.43-17,25.74-30.43,6.31-13.44,9.46-29.87,9.46-49.29s-3.15-36.18-9.46-49.61c-6.31-13.44-14.9-23.58-25.74-30.44-10.84-6.85-23.12-10.28-36.82-10.28s-26.17,3.46-37.07,10.36c-10.9,6.91-19.51,17.08-25.82,30.52-6.31,13.43-9.46,29.92-9.46,49.45s3.15,35.83,9.46,49.21c6.31,13.38,14.92,23.53,25.82,30.43,10.9,6.91,23.25,10.36,37.07,10.36Z" fill="#fff"/>
    <path d="M1322.43,448.89v-26.71l81.91-84.66c8.42-8.85,15.43-16.67,21.04-23.47,5.61-6.8,9.88-13.32,12.79-19.59,2.92-6.26,4.38-12.95,4.38-20.07,0-8.09-1.86-15.05-5.59-20.88-3.72-5.83-8.8-10.3-15.22-13.43-6.42-3.13-13.73-4.7-21.94-4.7s-15.97,1.76-22.34,5.26c-6.36,3.5-11.28,8.45-14.73,14.81-3.45,6.37-5.18,13.87-5.18,22.5h-35.45c0-14.67,3.39-27.54,10.2-38.61,6.8-11.06,16.08-19.64,27.84-25.74,11.76-6.09,25.2-9.14,40.31-9.14s28.78,3.02,40.39,9.06c11.6,6.05,20.69,14.22,27.27,24.53,6.58,10.31,9.88,21.99,9.88,35.05,0,8.85-1.64,17.48-4.93,25.9-3.29,8.42-9.07,17.91-17.32,28.49-8.25,10.58-19.88,23.42-34.88,38.53l-47.27,49.38v1.94h108.14v31.57h-159.29Z" fill="#fff"/>
  </g>
</svg>